<svg width="800" height="600" viewBox="0 0 800 600" fill="none" xmlns="http://www.w3.org/2000/svg">
<rect x="539" y="150" width="104" height="50" fill="#44E729"/>
<path d="M554.523 181H551.54L554.901 170.818H558.679L562.04 181H559.057L556.83 173.622H556.75L554.523 181ZM553.966 176.983H559.574V179.051H553.966V176.983ZM564.328 170.818L566.416 177.997H566.496L568.584 170.818H571.706L568.345 181H564.567L561.206 170.818H564.328ZM573.663 181H570.68L574.041 170.818H577.82L581.18 181H578.198L575.97 173.622H575.891L573.663 181ZM573.107 176.983H578.715V179.051H573.107V176.983ZM584.925 170.818V181H582.161V170.818H584.925ZM586.235 181V170.818H589V178.773H593.116V181H586.235ZM596.878 181H593.895L597.256 170.818H601.035L604.395 181H601.412L599.185 173.622H599.106L596.878 181ZM596.321 176.983H601.929V179.051H596.321V176.983ZM605.376 181V170.818H609.791C610.566 170.818 611.218 170.923 611.745 171.131C612.275 171.34 612.674 171.635 612.943 172.016C613.215 172.397 613.35 172.847 613.35 173.364C613.35 173.738 613.268 174.08 613.102 174.388C612.939 174.696 612.711 174.955 612.416 175.163C612.121 175.369 611.776 175.511 611.382 175.591V175.69C611.819 175.707 612.217 175.818 612.575 176.023C612.933 176.226 613.218 176.506 613.43 176.864C613.642 177.218 613.748 177.636 613.748 178.116C613.748 178.673 613.602 179.169 613.311 179.603C613.022 180.037 612.611 180.379 612.078 180.627C611.544 180.876 610.908 181 610.169 181H605.376ZM608.14 178.793H609.433C609.897 178.793 610.245 178.706 610.477 178.534C610.709 178.358 610.825 178.1 610.825 177.759C610.825 177.52 610.77 177.318 610.661 177.152C610.551 176.986 610.396 176.86 610.193 176.774C609.995 176.688 609.754 176.645 609.473 176.645H608.14V178.793ZM608.14 174.935H609.274C609.516 174.935 609.729 174.897 609.915 174.82C610.101 174.744 610.245 174.635 610.348 174.492C610.454 174.346 610.507 174.169 610.507 173.96C610.507 173.645 610.394 173.405 610.169 173.239C609.943 173.07 609.658 172.986 609.313 172.986H608.14V174.935ZM614.728 181V170.818H617.492V178.773H621.608V181H614.728ZM622.726 181V170.818H630.064V173.045H625.49V174.795H629.686V177.023H625.49V178.773H630.044V181H622.726Z" fill="white"/>
</svg>
