<svg width="800" height="600" viewBox="0 0 800 600" fill="none" xmlns="http://www.w3.org/2000/svg">
<rect x="539" y="150" width="104" height="50" fill="#E72929"/>
<path d="M571.914 181V170.818H576.329C577.104 170.818 577.756 170.923 578.283 171.131C578.813 171.34 579.212 171.635 579.481 172.016C579.753 172.397 579.888 172.847 579.888 173.364C579.888 173.738 579.806 174.08 579.64 174.388C579.478 174.696 579.249 174.955 578.954 175.163C578.659 175.369 578.314 175.511 577.92 175.591V175.69C578.357 175.707 578.755 175.818 579.113 176.023C579.471 176.226 579.756 176.506 579.968 176.864C580.18 177.218 580.286 177.636 580.286 178.116C580.286 178.673 580.14 179.169 579.849 179.603C579.56 180.037 579.149 180.379 578.616 180.627C578.082 180.876 577.446 181 576.707 181H571.914ZM574.678 178.793H575.971C576.435 178.793 576.783 178.706 577.015 178.534C577.247 178.358 577.363 178.1 577.363 177.759C577.363 177.52 577.308 177.318 577.199 177.152C577.089 176.986 576.934 176.86 576.732 176.774C576.533 176.688 576.292 176.645 576.011 176.645H574.678V178.793ZM574.678 174.935H575.812C576.054 174.935 576.268 174.897 576.453 174.82C576.639 174.744 576.783 174.635 576.886 174.492C576.992 174.346 577.045 174.169 577.045 173.96C577.045 173.645 576.932 173.405 576.707 173.239C576.481 173.07 576.196 172.986 575.852 172.986H574.678V174.935ZM587.291 170.818H590.055V177.341C590.055 178.116 589.87 178.788 589.499 179.354C589.131 179.918 588.617 180.354 587.957 180.662C587.298 180.967 586.532 181.119 585.661 181.119C584.782 181.119 584.013 180.967 583.354 180.662C582.694 180.354 582.18 179.918 581.812 179.354C581.448 178.788 581.266 178.116 581.266 177.341V170.818H584.03V177.102C584.03 177.417 584.099 177.699 584.239 177.947C584.378 178.193 584.57 178.385 584.815 178.524C585.064 178.663 585.346 178.733 585.661 178.733C585.979 178.733 586.26 178.663 586.506 178.524C586.751 178.385 586.943 178.193 587.082 177.947C587.222 177.699 587.291 177.417 587.291 177.102V170.818ZM596.858 174C596.831 173.669 596.707 173.41 596.485 173.224C596.266 173.039 595.933 172.946 595.486 172.946C595.201 172.946 594.967 172.981 594.785 173.05C594.606 173.117 594.473 173.208 594.387 173.324C594.301 173.44 594.256 173.572 594.253 173.722C594.246 173.844 594.268 173.955 594.317 174.055C594.37 174.151 594.453 174.239 594.566 174.318C594.679 174.394 594.823 174.464 594.998 174.527C595.174 174.59 595.383 174.646 595.625 174.696L596.46 174.875C597.023 174.994 597.506 175.152 597.907 175.347C598.308 175.543 598.636 175.773 598.891 176.038C599.146 176.3 599.334 176.595 599.453 176.923C599.576 177.251 599.639 177.609 599.642 177.997C599.639 178.667 599.471 179.233 599.14 179.697C598.808 180.161 598.334 180.514 597.718 180.756C597.105 180.998 596.367 181.119 595.506 181.119C594.621 181.119 593.848 180.988 593.189 180.727C592.532 180.465 592.022 180.062 591.657 179.518C591.296 178.972 591.114 178.272 591.111 177.42H593.736C593.752 177.732 593.83 177.994 593.969 178.206C594.108 178.418 594.304 178.579 594.556 178.688C594.811 178.798 595.114 178.852 595.466 178.852C595.761 178.852 596.008 178.816 596.206 178.743C596.405 178.67 596.556 178.569 596.659 178.44C596.762 178.31 596.815 178.163 596.818 177.997C596.815 177.841 596.763 177.705 596.664 177.589C596.568 177.47 596.409 177.364 596.187 177.271C595.965 177.175 595.665 177.086 595.287 177.003L594.273 176.784C593.371 176.589 592.66 176.262 592.14 175.805C591.623 175.344 591.366 174.716 591.369 173.92C591.366 173.274 591.538 172.709 591.886 172.225C592.238 171.738 592.723 171.358 593.343 171.087C593.966 170.815 594.68 170.679 595.486 170.679C596.308 170.679 597.019 170.817 597.618 171.092C598.218 171.367 598.681 171.754 599.006 172.255C599.334 172.752 599.499 173.334 599.503 174H596.858ZM600.276 170.818H603.358L605.347 174.955H605.426L607.415 170.818H610.497L606.759 177.798V181H604.014V177.798L600.276 170.818Z" fill="white"/>
</svg>
