<svg width="800" height="600" viewBox="0 0 800 600" fill="none" xmlns="http://www.w3.org/2000/svg">
<path d="M18 395V600H206V395H18Z" fill="#FFC8A9"/>
<path d="M212 395L208.517 364L15.4826 364L12 395L212 395Z" fill="#102C2E"/>
<rect x="78" y="469" width="69" height="131" fill="url(#paint0_linear_6_42)"/>
<path d="M34 410H191V446H34V410Z" fill="white"/>
<path d="M53.3516 438V420.545H65.6243V424.364H58.0902V427.364H64.8743V431.182H58.0902V438H53.3516ZM84.2763 429.273C84.2763 431.216 83.8984 432.855 83.1428 434.19C82.3871 435.52 81.3672 436.528 80.0831 437.216C78.799 437.898 77.3672 438.239 75.7876 438.239C74.1967 438.239 72.7592 437.895 71.4751 437.207C70.1967 436.514 69.1797 435.503 68.424 434.173C67.674 432.838 67.299 431.205 67.299 429.273C67.299 427.33 67.674 425.693 68.424 424.364C69.1797 423.028 70.1967 422.02 71.4751 421.338C72.7592 420.651 74.1967 420.307 75.7876 420.307C77.3672 420.307 78.799 420.651 80.0831 421.338C81.3672 422.02 82.3871 423.028 83.1428 424.364C83.8984 425.693 84.2763 427.33 84.2763 429.273ZM79.4013 429.273C79.4013 428.227 79.2621 427.347 78.9837 426.631C78.7109 425.909 78.3047 425.364 77.7649 424.994C77.2308 424.619 76.5717 424.432 75.7876 424.432C75.0036 424.432 74.3416 424.619 73.8018 424.994C73.2678 425.364 72.8615 425.909 72.5831 426.631C72.3104 427.347 72.174 428.227 72.174 429.273C72.174 430.318 72.3104 431.202 72.5831 431.923C72.8615 432.639 73.2678 433.185 73.8018 433.56C74.3416 433.929 75.0036 434.114 75.7876 434.114C76.5717 434.114 77.2308 433.929 77.7649 433.56C78.3047 433.185 78.7109 432.639 78.9837 431.923C79.2621 431.202 79.4013 430.318 79.4013 429.273ZM103.378 429.273C103.378 431.216 103 432.855 102.244 434.19C101.489 435.52 100.469 436.528 99.1847 437.216C97.9006 437.898 96.4688 438.239 94.8892 438.239C93.2983 438.239 91.8608 437.895 90.5767 437.207C89.2983 436.514 88.2812 435.503 87.5256 434.173C86.7756 432.838 86.4006 431.205 86.4006 429.273C86.4006 427.33 86.7756 425.693 87.5256 424.364C88.2812 423.028 89.2983 422.02 90.5767 421.338C91.8608 420.651 93.2983 420.307 94.8892 420.307C96.4688 420.307 97.9006 420.651 99.1847 421.338C100.469 422.02 101.489 423.028 102.244 424.364C103 425.693 103.378 427.33 103.378 429.273ZM98.5028 429.273C98.5028 428.227 98.3636 427.347 98.0852 426.631C97.8125 425.909 97.4063 425.364 96.8665 424.994C96.3324 424.619 95.6733 424.432 94.8892 424.432C94.1051 424.432 93.4432 424.619 92.9034 424.994C92.3693 425.364 91.9631 425.909 91.6847 426.631C91.4119 427.347 91.2756 428.227 91.2756 429.273C91.2756 430.318 91.4119 431.202 91.6847 431.923C91.9631 432.639 92.3693 433.185 92.9034 433.56C93.4432 433.929 94.1051 434.114 94.8892 434.114C95.6733 434.114 96.3324 433.929 96.8665 433.56C97.4063 433.185 97.8125 432.639 98.0852 431.923C98.3636 431.202 98.5028 430.318 98.5028 429.273ZM112.286 438H105.57V420.545H112.218C114.013 420.545 115.565 420.895 116.871 421.594C118.184 422.287 119.195 423.287 119.906 424.594C120.621 425.895 120.979 427.455 120.979 429.273C120.979 431.091 120.624 432.653 119.914 433.96C119.204 435.261 118.198 436.261 116.897 436.96C115.596 437.653 114.059 438 112.286 438ZM110.309 433.977H112.116C112.979 433.977 113.715 433.838 114.323 433.56C114.937 433.281 115.403 432.801 115.721 432.119C116.045 431.437 116.207 430.489 116.207 429.273C116.207 428.057 116.042 427.108 115.712 426.426C115.388 425.744 114.911 425.264 114.281 424.986C113.656 424.707 112.888 424.568 111.979 424.568H110.309V433.977ZM144.249 427.091H139.442C139.408 426.693 139.317 426.332 139.169 426.009C139.027 425.685 138.828 425.406 138.572 425.173C138.322 424.935 138.018 424.753 137.661 424.628C137.303 424.497 136.896 424.432 136.442 424.432C135.646 424.432 134.973 424.625 134.422 425.011C133.876 425.398 133.462 425.952 133.178 426.673C132.899 427.395 132.76 428.261 132.76 429.273C132.76 430.341 132.902 431.236 133.186 431.957C133.476 432.673 133.893 433.213 134.439 433.577C134.984 433.935 135.641 434.114 136.408 434.114C136.845 434.114 137.237 434.06 137.584 433.952C137.93 433.838 138.232 433.676 138.487 433.466C138.743 433.256 138.95 433.003 139.109 432.707C139.274 432.406 139.385 432.068 139.442 431.693L144.249 431.727C144.192 432.466 143.984 433.219 143.626 433.986C143.268 434.747 142.76 435.452 142.101 436.099C141.447 436.741 140.638 437.259 139.672 437.651C138.706 438.043 137.584 438.239 136.305 438.239C134.703 438.239 133.266 437.895 131.993 437.207C130.726 436.52 129.723 435.509 128.984 434.173C128.251 432.838 127.885 431.205 127.885 429.273C127.885 427.33 128.26 425.693 129.01 424.364C129.76 423.028 130.771 422.02 132.044 421.338C133.317 420.651 134.737 420.307 136.305 420.307C137.408 420.307 138.422 420.457 139.348 420.759C140.274 421.06 141.087 421.5 141.786 422.08C142.484 422.653 143.047 423.361 143.473 424.202C143.899 425.043 144.158 426.006 144.249 427.091ZM163.308 429.273C163.308 431.216 162.93 432.855 162.174 434.19C161.418 435.52 160.398 436.528 159.114 437.216C157.83 437.898 156.398 438.239 154.819 438.239C153.228 438.239 151.79 437.895 150.506 437.207C149.228 436.514 148.211 435.503 147.455 434.173C146.705 432.838 146.33 431.205 146.33 429.273C146.33 427.33 146.705 425.693 147.455 424.364C148.211 423.028 149.228 422.02 150.506 421.338C151.79 420.651 153.228 420.307 154.819 420.307C156.398 420.307 157.83 420.651 159.114 421.338C160.398 422.02 161.418 423.028 162.174 424.364C162.93 425.693 163.308 427.33 163.308 429.273ZM158.433 429.273C158.433 428.227 158.293 427.347 158.015 426.631C157.742 425.909 157.336 425.364 156.796 424.994C156.262 424.619 155.603 424.432 154.819 424.432C154.035 424.432 153.373 424.619 152.833 424.994C152.299 425.364 151.893 425.909 151.614 426.631C151.342 427.347 151.205 428.227 151.205 429.273C151.205 430.318 151.342 431.202 151.614 431.923C151.893 432.639 152.299 433.185 152.833 433.56C153.373 433.929 154.035 434.114 154.819 434.114C155.603 434.114 156.262 433.929 156.796 433.56C157.336 433.185 157.742 432.639 158.015 431.923C158.293 431.202 158.433 430.318 158.433 429.273ZM167.023 438.273C166.364 438.273 165.799 438.043 165.327 437.582C164.862 437.116 164.631 436.551 164.637 435.886C164.631 435.239 164.862 434.685 165.327 434.224C165.799 433.764 166.364 433.534 167.023 433.534C167.648 433.534 168.2 433.764 168.677 434.224C169.16 434.685 169.404 435.239 169.41 435.886C169.404 436.33 169.288 436.733 169.06 437.097C168.839 437.455 168.549 437.741 168.191 437.957C167.833 438.168 167.444 438.273 167.023 438.273Z" fill="black"/>
<defs>
<linearGradient id="paint0_linear_6_42" x1="78" y1="500.5" x2="147" y2="544" gradientUnits="userSpaceOnUse">
<stop stop-color="#D9D9D9"/>
<stop offset="0.276042" stop-color="#D8D8D8"/>
<stop offset="0.744792" stop-color="#BDBDBD"/>
<stop offset="1" stop-color="#CACACA"/>
</linearGradient>
</defs>
</svg>
