<svg width="800" height="600" viewBox="0 0 800 600" fill="none" xmlns="http://www.w3.org/2000/svg">
    <path d="M129 200.5C129 195.529 138 177 138 177C138 177 147 195.529 147 200.5C147 205.471 142.971 209.5 138 209.5C133.029 209.5 129 205.471 129 200.5Z" fill="#7ED1E3"/>
    <path d="M169 216.5C169 211.529 178 193 178 193C178 193 187 211.529 187 216.5C187 221.471 182.971 225.5 178 225.5C173.029 225.5 169 221.471 169 216.5Z" fill="#7ED1E3"/>
    <path d="M204 168.5C204 163.529 213 145 213 145C213 145 222 163.529 222 168.5C222 173.471 217.971 177.5 213 177.5C208.029 177.5 204 173.471 204 168.5Z" fill="#7ED1E3"/>
    <path d="M233 205.5C233 200.529 242 182 242 182C242 182 251 200.529 251 205.5C251 210.471 246.971 214.5 242 214.5C237.029 214.5 233 210.471 233 205.5Z" fill="#7ED1E3"/>
    <path d="M270 167.5C270 162.529 279 144 279 144C279 144 288 162.529 288 167.5C288 172.471 283.971 176.5 279 176.5C274.029 176.5 270 172.471 270 167.5Z" fill="#7ED1E3"/>
    <path d="M279 233.5C279 228.529 288 210 288 210C288 210 297 228.529 297 233.5C297 238.471 292.971 242.5 288 242.5C283.029 242.5 279 238.471 279 233.5Z" fill="#7ED1E3"/>
    <path d="M201 249.5C201 244.529 210 226 210 226C210 226 219 244.529 219 249.5C219 254.471 214.971 258.5 210 258.5C205.029 258.5 201 254.471 201 249.5Z" fill="#7ED1E3"/>
    <path d="M111 259.5C111 254.529 120 236 120 236C120 236 129 254.529 129 259.5C129 264.471 124.971 268.5 120 268.5C115.029 268.5 111 264.471 111 259.5Z" fill="#7ED1E3"/>
    <path d="M136.476 71.3621C97.7795 69.8915 84.1834 89.0094 80 119.157C80 129.941 83.7651 153.128 98.8254 159.599C113.886 166.069 140.66 148.569 152.164 139.01C164.714 154.893 186.677 153.961 196.09 151.51C212.823 165.04 235.135 148.814 244.199 139.01C264.279 146.657 295.794 128.961 309.042 119.157C375.977 99.7448 336.931 79.2054 309.042 71.3621C303.185 52.5383 263.373 56.1658 244.199 60.3326C232.485 23.2733 187.026 38.5186 165.76 50.7736C138.986 52.5383 135.082 65.2346 136.476 71.3621Z" fill="#727272"/>
</svg>