<svg width="800" height="600" viewBox="0 0 800 600" fill="none" xmlns="http://www.w3.org/2000/svg">
    <path d="M154 73C154 89.5685 140.569 103 124 103C107.431 103 94 89.5685 94 73C94 56.4315 107.431 43 124 43C140.569 43 154 56.4315 154 73Z" fill="#FAFF00"/>
    <path d="M124.5 37V20.5M139 41L147.5 27.5M154.5 54L169.5 45M159.5 72H178M154.5 91L169.5 103M139 103L151 120M124.5 109.5V128M104.5 106.5L93.5 123.5M93.5 96.5L77 106.5M88.5 81.5L70 85M88.5 68H70M88.5 54L77 45M97.5 41L85 27.5M109 37L104.5 20.5M154 73C154 89.5685 140.569 103 124 103C107.431 103 94 89.5685 94 73C94 56.4315 107.431 43 124 43C140.569 43 154 56.4315 154 73Z" stroke="#FAFF00"/>
</svg>